<svg xmlns="http://www.w3.org/2000/svg" width="1200" height="560" viewBox="0 0 1200 560" fill="none">
  <rect width="1200" height="560" fill="#0A0A0F"/>

  <rect x="40" y="80" width="330" height="380" rx="20" fill="#12121A" stroke="#30324D"/>
  <text x="205" y="120" fill="#E8EBFF" font-family="JetBrains Mono, monospace" font-size="24" text-anchor="middle">Frontend</text>
  <text x="205" y="165" fill="#A8B0D0" font-family="Inter, Arial, sans-serif" font-size="16" text-anchor="middle">React + TypeScript + Vite</text>
  <text x="205" y="215" fill="#7EE6FF" font-family="JetBrains Mono, monospace" font-size="16" text-anchor="middle">Arena • History • Leaderboard</text>
  <text x="205" y="245" fill="#7EE6FF" font-family="JetBrains Mono, monospace" font-size="16" text-anchor="middle">Proof • Autopsy • Report</text>
  <text x="205" y="300" fill="#A8B0D0" font-family="Inter, Arial, sans-serif" font-size="14" text-anchor="middle">SSE EventSource + REST API client</text>

  <rect x="435" y="40" width="430" height="460" rx="20" fill="#12121A" stroke="#30324D"/>
  <text x="650" y="84" fill="#E8EBFF" font-family="JetBrains Mono, monospace" font-size="24" text-anchor="middle">Backend</text>
  <text x="650" y="126" fill="#A8B0D0" font-family="Inter, Arial, sans-serif" font-size="16" text-anchor="middle">FastAPI + Async Run Engine</text>

  <rect x="470" y="158" width="360" height="74" rx="12" fill="#0E0F16" stroke="#30324D"/>
  <text x="650" y="202" fill="#7EE6FF" font-family="JetBrains Mono, monospace" font-size="16" text-anchor="middle">4 Concurrent Scaffolds</text>
  <rect x="470" y="252" width="360" height="74" rx="12" fill="#0E0F16" stroke="#30324D"/>
  <text x="650" y="296" fill="#7EE6FF" font-family="JetBrains Mono, monospace" font-size="16" text-anchor="middle">Deterministic Evaluation + LLM Judge</text>
  <rect x="470" y="346" width="360" height="74" rx="12" fill="#0E0F16" stroke="#30324D"/>
  <text x="650" y="390" fill="#7EE6FF" font-family="JetBrains Mono, monospace" font-size="16" text-anchor="middle">Autopsy + Patch + Report Export</text>

  <rect x="930" y="180" width="230" height="190" rx="20" fill="#12121A" stroke="#30324D"/>
  <text x="1045" y="226" fill="#E8EBFF" font-family="JetBrains Mono, monospace" font-size="22" text-anchor="middle">LLM Provider</text>
  <text x="1045" y="262" fill="#A8B0D0" font-family="Inter, Arial, sans-serif" font-size="14" text-anchor="middle">Anthropic + OpenAI + Gemini + OpenRouter</text>
  <text x="1045" y="294" fill="#7EE6FF" font-family="JetBrains Mono, monospace" font-size="14" text-anchor="middle">token usage + cost</text>

  <path d="M370 190H420" stroke="#6E7EFF" stroke-width="4" marker-end="url(#arr)"/>
  <path d="M370 290H420" stroke="#22D3EE" stroke-width="4" marker-end="url(#arr2)"/>
  <path d="M865 260H920" stroke="#6E7EFF" stroke-width="4" marker-end="url(#arr)"/>
  <path d="M920 320H865" stroke="#22D3EE" stroke-width="4" marker-end="url(#arr2)"/>

  <defs>
    <marker id="arr" markerWidth="10" markerHeight="10" refX="8" refY="3" orient="auto">
      <path d="M0,0 L0,6 L9,3 z" fill="#6E7EFF"/>
    </marker>
    <marker id="arr2" markerWidth="10" markerHeight="10" refX="8" refY="3" orient="auto">
      <path d="M0,0 L0,6 L9,3 z" fill="#22D3EE"/>
    </marker>
  </defs>
</svg>
