<svg xmlns="http://www.w3.org/2000/svg" width="1200" height="420" viewBox="0 0 1200 420" fill="none">
  <rect width="1200" height="420" fill="#0A0A0F"/>
  <rect x="40" y="120" width="240" height="140" rx="16" fill="#12121A" stroke="#30324D"/>
  <text x="160" y="178" fill="#E8EBFF" font-family="JetBrains Mono, monospace" font-size="22" text-anchor="middle">Run Arena</text>
  <text x="160" y="210" fill="#A8B0D0" font-family="Inter, Arial, sans-serif" font-size="14" text-anchor="middle">same task, 4 scaffolds</text>

  <rect x="330" y="120" width="240" height="140" rx="16" fill="#12121A" stroke="#30324D"/>
  <text x="450" y="178" fill="#E8EBFF" font-family="JetBrains Mono, monospace" font-size="22" text-anchor="middle">Score + Proof</text>
  <text x="450" y="210" fill="#A8B0D0" font-family="Inter, Arial, sans-serif" font-size="14" text-anchor="middle">quality, cost, confidence</text>

  <rect x="620" y="120" width="240" height="140" rx="16" fill="#12121A" stroke="#30324D"/>
  <text x="740" y="178" fill="#E8EBFF" font-family="JetBrains Mono, monospace" font-size="22" text-anchor="middle">Autopsy</text>
  <text x="740" y="210" fill="#A8B0D0" font-family="Inter, Arial, sans-serif" font-size="14" text-anchor="middle">find failure evidence</text>

  <rect x="910" y="120" width="240" height="140" rx="16" fill="#12121A" stroke="#30324D"/>
  <text x="1030" y="178" fill="#E8EBFF" font-family="JetBrains Mono, monospace" font-size="22" text-anchor="middle">Patch + Rerun</text>
  <text x="1030" y="210" fill="#A8B0D0" font-family="Inter, Arial, sans-serif" font-size="14" text-anchor="middle">improve and verify</text>

  <path d="M280 190H320" stroke="#6E7EFF" stroke-width="4" marker-end="url(#arrow)"/>
  <path d="M570 190H610" stroke="#6E7EFF" stroke-width="4" marker-end="url(#arrow)"/>
  <path d="M860 190H900" stroke="#6E7EFF" stroke-width="4" marker-end="url(#arrow)"/>
  <path d="M1030 275C1030 350 160 350 160 275" stroke="#22D3EE" stroke-width="4" marker-end="url(#arrow)"/>

  <defs>
    <marker id="arrow" markerWidth="10" markerHeight="10" refX="8" refY="3" orient="auto">
      <path d="M0,0 L0,6 L9,3 z" fill="#6E7EFF"/>
    </marker>
  </defs>
</svg>
